<svg id="Layer_1" data-name="Layer 1" xmlns="http://www.w3.org/2000/svg" viewBox="0 0 379.9 379.9"><defs><style>.cls-1{fill:#0b192f;stroke:#41bbec;stroke-width:10px;}.cls-1,.cls-2{stroke-miterlimit:10;}.cls-2{fill:none;stroke:#fff;stroke-width:8px;}.cls-3{fill:#fff;}.cls-4{fill:#c03b2b;}</style></defs><circle class="cls-1" cx="189.95" cy="189.95" r="184.95"/><path class="cls-2" d="M314.81,324.82a3.14,3.14,0,0,1-.53,0h-.39c-6.92-.5-17.84-6.16-23.71-9.48-2.5-1.4-4.08-2.4-4.08-2.4-19.15-17.84-14.37-71.38-14.37-71.38,11.07-9.17,32.92-11.38,42.38-11.91,2.84-.18,4.56-.18,4.56-.18" transform="translate(-124.05 -174.05)"/><path class="cls-2" d="M313.37,324.82a3,3,0,0,0,.52,0h.39c6.92-.5,17.85-6.16,23.72-9.48,2.49-1.4,4.07-2.4,4.07-2.4a23.52,23.52,0,0,0,2.36-2.52c16.41-19.86,12-68.86,12-68.86-11-9.17-32.85-11.38-42.33-11.91-2.85-.18-4.61-.18-4.61-.18" transform="translate(-124.05 -174.05)"/><polyline class="cls-2" points="166.13 143.85 166.13 154.66 166.13 164.87"/><polyline class="cls-2" points="213.95 143.85 213.95 163.06 213.95 164.87"/><path class="cls-2" d="M281.32,312.16l-19.15,9.17c1.62,0,8.19,4.19,16.17,9.77,12.36,8.59,28.14,20.48,34.08,25l2.39,1.81" transform="translate(-124.05 -174.05)"/><path class="cls-2" d="M347,312.16l.91.44,18.2,8.73c-2.18,0-13.21,7.55-24.63,15.78-10.33,7.45-20.94,15.44-25.58,19l-2.39,1.81" transform="translate(-124.05 -174.05)"/><path class="cls-2" d="M221.45,468.25c-26.63,1.25-29.55-14.67-29.55-14.67l1.62-33.74s1.9-26.69,14.12-52.08,33.28-28.3,33.28-28.81c0-.3,21.4-4.66,37.42-7.85" transform="translate(-124.05 -174.05)"/><path class="cls-2" d="M406.55,468.25c26.63,1.25,29.55-14.67,29.55-14.67l-1.62-33.74s-1.9-26.69-14.12-52.08-33.28-28.3-33.28-28.81c0-.3-21.18-4.63-37.17-7.78,0,0,0,0,0,0" transform="translate(-124.05 -174.05)"/><path class="cls-3" d="M247.91,385.86h2.67v-8.33h-3.13c-12.61,0-21.54,5.91-21.54,19.85a88.82,88.82,0,0,0,1.2,12.55,90.76,90.76,0,0,1,1.19,12.73c0,5.27-1.47,11.18-12.05,11.18v7.72c10.58,0,12.05,6.52,12.05,11.22A85.07,85.07,0,0,1,227.11,465c0,.14,0,.24,0,.37-.17,1.08-.31,2.22-.45,3.36-.14,1-.28,1.95-.35,2.89-.14,1.14-.22,2.25-.29,3.35,0,.81-.07,1.62-.07,2.42,0,15.31,9.21,20.75,21.54,20.75h3.13v-8.33h-2.67c-8.33,0-11.74-4.7-11.74-13.16,0-.57,0-1.14,0-1.68,0-1.1.1-2.21.24-3.35.08-.94.18-1.92.29-2.89s.28-2,.45-3c0-.13,0-.23.07-.37a68.72,68.72,0,0,0,1-11.11c.14-9.71-4-14.84-10.68-16.52v-.3c6.67-1.82,10.82-6.65,10.68-16.32a71.48,71.48,0,0,0-1.06-11.52,67.56,67.56,0,0,1-1-10.74C236.17,390.73,239.13,385.86,247.91,385.86Z" transform="translate(-124.05 -174.05)"/><path class="cls-3" d="M399.7,422.66a90.76,90.76,0,0,1,1.19-12.73,88.82,88.82,0,0,0,1.2-12.55c0-13.94-8.93-19.85-21.54-19.85h-3.13v8.33h2.67c8.78,0,11.74,4.87,11.74,13a67.56,67.56,0,0,1-1,10.74,71.48,71.48,0,0,0-1.06,11.52c-.14,9.67,4,14.5,10.68,16.32v.3c-6.67,1.68-10.82,6.81-10.68,16.52a69.63,69.63,0,0,0,1.06,11.48c.17,1,.31,2,.45,3,.25,2.11.46,4.16.53,6.24,0,.54,0,1.11,0,1.68,0,8.46-3.41,13.16-11.74,13.16h-2.67v8.33h3.13c12.33,0,21.54-5.44,21.54-20.75,0-.8,0-1.61-.07-2.42-.11-2-.32-4.16-.64-6.24-.14-1.28-.31-2.52-.49-3.73a85.07,85.07,0,0,1-1.19-12.25c0-4.7,1.51-11.22,12.05-11.22v-7.72C401.21,433.84,399.7,427.93,399.7,422.66Z" transform="translate(-124.05 -174.05)"/><rect class="cls-3" x="130.36" y="203.5" width="119.46" height="8.32"/><polygon class="cls-4" points="226.22 322.87 245.41 255.62 251.7 257.25 232.51 324.51 226.22 322.87"/><ellipse class="cls-4" cx="154.28" cy="316.03" rx="8.64" ry="8.26"/><ellipse class="cls-4" cx="180.2" cy="316.03" rx="8.64" ry="8.26"/><ellipse class="cls-4" cx="206.12" cy="316.03" rx="8.64" ry="8.26"/></svg>